<svg xmlns="http://www.w3.org/2000/svg" style="position:absolute; width: 0; height: 0"><symbol viewBox="0 0 65 46" id="apple-pay-complete-payment"><path fill-rule="evenodd" clip-rule="evenodd" d="M.5 2a2 2 0 0 1 2-2h60a2 2 0 0 1 2 2v42a2 2 0 0 1-2 2h-60a2 2 0 0 1-2-2V2zm8 3a2 2 0 1 1-4 0 2 2 0 0 1 4 0zm4 2a2 2 0 1 0 0-4 2 2 0 0 0 0 4zm8-2a2 2 0 1 1-4 0 2 2 0 0 1 4 0zm22.426 25.816a.75.75 0 0 1 .003-1.06l5.063-5.031H15.213a.75.75 0 0 1 0-1.5h32.73l-5.014-4.982a.75.75 0 0 1 1.058-1.064l6.328 6.288a.75.75 0 0 1 0 1.064l-6.328 6.288a.75.75 0 0 1-1.061-.003z" fill="#C4C4C4"></path></symbol><symbol viewBox="0 0 165 105" id="apple-pay"><path d="M150.698 0H14.823c-.566 0-1.133 0-1.698.003-.477.004-.953.009-1.43.022-1.039.028-2.087.09-3.113.274a10.51 10.51 0 0 0-2.958.975 9.932 9.932 0 0 0-4.35 4.35 10.463 10.463 0 0 0-.975 2.96C.113 9.611.052 10.658.024 11.696c-.013.477-.019.953-.022 1.43C0 13.69 0 14.256 0 14.823v76.318c0 .567 0 1.132.002 1.699.003.476.009.953.022 1.43.028 1.036.09 2.084.275 3.11a10.46 10.46 0 0 0 .974 2.96 9.897 9.897 0 0 0 1.83 2.52 9.874 9.874 0 0 0 2.52 1.83c.947.483 1.917.79 2.96.977 1.025.183 2.073.245 3.112.273.477.011.953.018 1.43.02.565.004 1.132.004 1.698.004h135.875c.565 0 1.132 0 1.697-.004a79.71 79.71 0 0 0 1.431-.02c1.037-.028 2.085-.09 3.113-.273a10.478 10.478 0 0 0 2.958-.977 9.955 9.955 0 0 0 4.35-4.35c.483-.947.789-1.917.974-2.96.186-1.026.246-2.074.274-3.11.013-.477.02-.954.022-1.43.004-.567.004-1.132.004-1.699V14.824c0-.567 0-1.133-.004-1.699a63.067 63.067 0 0 0-.022-1.429c-.028-1.038-.088-2.085-.274-3.112a10.4 10.4 0 0 0-.974-2.96 9.941 9.941 0 0 0-4.35-4.35A10.52 10.52 0 0 0 156.939.3c-1.028-.185-2.076-.246-3.113-.274a71.413 71.413 0 0 0-1.431-.022C151.83 0 151.263 0 150.698 0z"></path><path fill="#FFF" d="M150.698 3.532l1.672.003c.452.003.905.008 1.36.02.792.022 1.719.065 2.583.22.75.135 1.38.34 1.984.648a6.392 6.392 0 0 1 2.804 2.807c.306.6.51 1.226.645 1.983.154.854.197 1.783.218 2.58.013.45.019.9.02 1.36.005.557.005 1.113.005 1.671v76.318c0 .558 0 1.114-.004 1.682-.002.45-.008.9-.02 1.35-.022.796-.065 1.725-.221 2.589a6.855 6.855 0 0 1-.645 1.975 6.397 6.397 0 0 1-2.808 2.807c-.6.306-1.228.512-1.971.645-.882.157-1.847.2-2.574.22-.457.01-.912.017-1.379.019-.555.004-1.113.004-1.669.004H14.801c-.55 0-1.1 0-1.66-.004a75.086 75.086 0 0 1-1.35-.018c-.744-.02-1.71-.064-2.584-.22a6.938 6.938 0 0 1-1.986-.65 6.337 6.337 0 0 1-1.622-1.18 6.355 6.355 0 0 1-1.178-1.623 6.935 6.935 0 0 1-.647-1.985c-.155-.863-.198-1.788-.22-2.578a66.017 66.017 0 0 1-.02-1.355l-.002-1.327V14.474l.002-1.325c.003-.453.008-.905.02-1.357.022-.792.065-1.717.222-2.587a6.924 6.924 0 0 1 .646-1.981c.304-.598.7-1.144 1.18-1.622a6.385 6.385 0 0 1 1.624-1.18 6.96 6.96 0 0 1 1.98-.647c.865-.155 1.792-.198 2.586-.22.452-.012.905-.017 1.354-.02l1.677-.003h135.875"></path><path d="M45.186 35.64c1.417-1.772 2.38-4.152 2.126-6.585-2.075.104-4.607 1.37-6.073 3.143-1.316 1.52-2.48 4-2.177 6.33 2.33.202 4.656-1.165 6.124-2.887M47.285 38.983c-3.382-.202-6.258 1.919-7.873 1.919-1.616 0-4.09-1.818-6.764-1.769-3.482.051-6.713 2.02-8.48 5.15-3.634 6.264-.959 15.556 2.575 20.657 1.717 2.524 3.785 5.303 6.51 5.203 2.575-.101 3.584-1.668 6.714-1.668 3.128 0 4.037 1.668 6.763 1.617 2.827-.05 4.594-2.525 6.31-5.051 1.969-2.877 2.775-5.655 2.825-5.808-.05-.05-5.45-2.122-5.5-8.333-.051-5.201 4.24-7.675 4.441-7.828-2.423-3.584-6.209-3.988-7.52-4.09"></path><g><path d="M76.734 31.944c7.35 0 12.47 5.067 12.47 12.444 0 7.404-5.225 12.497-12.654 12.497h-8.14v12.943h-5.88V31.944h14.204zM68.41 51.949h6.747c5.12 0 8.034-2.756 8.034-7.534 0-4.778-2.914-7.509-8.008-7.509h-6.773V51.95zM90.74 61.979c0-4.831 3.702-7.798 10.266-8.166l7.56-.446v-2.126c0-3.072-2.074-4.91-5.539-4.91-3.282 0-5.33 1.575-5.828 4.043h-5.356c.315-4.988 4.568-8.664 11.394-8.664 6.695 0 10.974 3.545 10.974 9.084v19.034h-5.435v-4.542h-.13c-1.602 3.072-5.094 5.015-8.717 5.015-5.408 0-9.189-3.36-9.189-8.322zm17.826-2.494v-2.18l-6.8.42c-3.386.237-5.303 1.733-5.303 4.096 0 2.415 1.996 3.99 5.041 3.99 3.964 0 7.062-2.73 7.062-6.326zM119.342 79.989v-4.595c.419.105 1.364.105 1.837.105 2.625 0 4.043-1.102 4.909-3.938 0-.052.5-1.68.5-1.706l-9.977-27.646h6.143l6.984 22.474h.104l6.985-22.474h5.985l-10.344 29.063c-2.362 6.695-5.093 8.848-10.816 8.848-.473 0-1.891-.053-2.31-.131z"></path></g></symbol><symbol viewBox="0 0 21 20" id="cart-empty"><path d="M6 16c-1.1 0-1.99.9-1.99 2S4.9 20 6 20s2-.9 2-2-.9-2-2-2zm10 0c-1.1 0-1.99.9-1.99 2s.89 2 1.99 2 2-.9 2-2-.9-2-2-2zm-9.83-3.25l.03-.12.9-1.63h7.45c.75 0 1.41-.41 1.75-1.03l3.86-7.01L18.42 2h-.01l-1.1 2-2.76 5H7.53l-.13-.27L5.16 4l-.95-2-.94-2H0v2h2l3.6 7.59-1.35 2.45c-.16.28-.25.61-.25.96 0 1.1.9 2 2 2h12v-2H6.42c-.13 0-.25-.11-.25-.25z" fill="currentColor" fill-rule="evenodd"></path></symbol><symbol viewBox="0 0 20 20" id="cart"><path d="M6 16c-1.1 0-1.99.9-1.99 2S4.9 20 6 20s2-.9 2-2-.9-2-2-2zM0 0v2h2l3.6 7.59-1.35 2.45c-.16.28-.25.61-.25.96 0 1.1.9 2 2 2h12v-2H6.42c-.14 0-.25-.11-.25-.25l.03-.12.9-1.63h7.45c.75 0 1.41-.41 1.75-1.03l3.58-6.49A1.003 1.003 0 0 0 19 2H4.21l-.94-2H0zm16 16c-1.1 0-1.99.9-1.99 2s.89 2 1.99 2 2-.9 2-2-.9-2-2-2z" fill="currentColor" fill-rule="evenodd"></path></symbol><symbol viewBox="0 0 40 24" id="cc-american-express"><path d="M38.333 24H1.667C.75 24 0 23.28 0 22.4V1.6C0 .72.75 0 1.667 0h36.666C39.25 0 40 .72 40 1.6v20.8c0 .88-.75 1.6-1.667 1.6z" fill="#fff"></path><path d="M6.26 12.32h2.313L7.415 9.66m19.938.317h-3.738v1.23h3.666v1.384h-3.675v1.385h3.821v1.005c.623-.77 1.33-1.466 2.025-2.235l.707-.77c-.934-1.004-1.87-2.08-2.804-3.075v1.077z" fill="#1478be"></path><path d="M38.25 7h-5.605l-1.328 1.4L30.072 7H16.984l-1.017 2.416L14.877 7h-9.58L1.25 16.5h4.826l.623-1.556h1.4l.623 1.556H29.99l1.327-1.483 1.328 1.483h5.605l-4.36-4.667L38.25 7zm-17.685 8.1h-1.557V9.883L16.673 15.1h-1.33L13.01 9.883l-.084 5.217H9.73l-.623-1.556h-3.27L5.132 15.1H3.42l2.884-6.772h2.42l2.645 6.233V8.33h2.646l2.107 4.51 1.868-4.51h2.575v6.77zm14.727 0h-2.024l-2.024-2.26-2.023 2.26H22.06V8.328h7.47l1.795 2.177 2.024-2.177h2.025L32.26 11.75l3.032 3.35z" fill="#1478be"></path></symbol><symbol viewBox="0 0 40 24" id="cc-diners-club"><path d="M38.333 24H1.667C.75 24 0 23.28 0 22.4V1.6C0 .72.75 0 1.667 0h36.666C39.25 0 40 .72 40 1.6v20.8c0 .88-.75 1.6-1.667 1.6z" fill="#fff"></path><path d="M9.02 11.83c0-5.456 4.54-9.88 10.14-9.88 5.6 0 10.139 4.424 10.139 9.88-.002 5.456-4.54 9.88-10.14 9.88-5.6 0-10.14-4.424-10.14-9.88z" fill="#fefefe"></path><path d="M32.522 22H8.5V1.5h24.022" fill="#fff"></path><path d="M25.02 11.732c-.003-2.534-1.607-4.695-3.868-5.55v11.102c2.26-.857 3.865-3.017 3.87-5.552zm-8.182 5.55V6.18c-2.26.86-3.86 3.017-3.867 5.55.007 2.533 1.61 4.69 3.868 5.55zm2.158-14.934c-5.25.002-9.503 4.202-9.504 9.384 0 5.182 4.254 9.38 9.504 9.382 5.25 0 9.504-4.2 9.505-9.382 0-5.182-4.254-9.382-9.504-9.384zM18.973 22C13.228 22.027 8.5 17.432 8.5 11.84 8.5 5.726 13.228 1.5 18.973 1.5h2.692c5.677 0 10.857 4.225 10.857 10.34 0 5.59-5.18 10.16-10.857 10.16h-2.692z" fill="#004a97"></path></symbol><symbol viewBox="0 0 40 24" id="cc-discover"><path d="M38.333 24H1.667C.75 24 0 23.28 0 22.4V1.6C0 .72.75 0 1.667 0h36.666C39.25 0 40 .72 40 1.6v20.8c0 .88-.75 1.6-1.667 1.6z" fill="#fff"></path><path d="M38.995 11.75S27.522 20.1 6.5 23.5h31.495a1 1 0 0 0 1-1V11.75z" fill="#f48024"></path><path d="M5.332 11.758c-.338.305-.776.438-1.47.438h-.29V8.55h.29c.694 0 1.115.124 1.47.446.37.33.595.844.595 1.372 0 .53-.224 1.06-.595 1.39zM4.077 7.615H2.5v5.515h1.57c.833 0 1.435-.197 1.963-.637.63-.52 1-1.305 1-2.116 0-1.628-1.214-2.762-2.956-2.762zM7.53 13.13h1.074V7.616H7.53m3.697 2.116c-.645-.24-.834-.397-.834-.695 0-.347.338-.61.8-.61.322 0 .587.132.867.446l.562-.737a2.407 2.407 0 0 0-1.618-.612c-.975 0-1.718.678-1.718 1.58 0 .76.346 1.15 1.355 1.513.42.148.635.247.743.314a.66.66 0 0 1 .322.57c0 .448-.354.78-.834.78-.51 0-.924-.258-1.17-.736l-.695.67c.495.726 1.09 1.05 1.907 1.05 1.116 0 1.9-.745 1.9-1.812 0-.876-.363-1.273-1.585-1.72zm1.923.645c0 1.62 1.27 2.877 2.907 2.877.462 0 .858-.09 1.347-.32v-1.267c-.43.43-.81.604-1.297.604-1.082 0-1.85-.785-1.85-1.9 0-1.06.792-1.895 1.8-1.895.512 0 .9.183 1.347.62V7.83c-.472-.24-.86-.34-1.322-.34-1.627 0-2.932 1.283-2.932 2.887zm12.772.943l-1.468-3.705H23.28l2.337 5.656h.578l2.38-5.655H27.41m1.65 5.514h3.046v-.934h-1.973v-1.488h1.9v-.934h-1.9V8.55h1.973v-.935H29.06m5.147 2.539h-.314v-1.67h.33c.67 0 1.034.28 1.034.818 0 .554-.364.852-1.05.852zm2.155-.91c0-1.033-.71-1.628-1.95-1.628H32.82v5.514h1.073v-2.215h.14l1.487 2.215h1.32l-1.733-2.323c.81-.165 1.255-.72 1.255-1.563z" fill="#221f20"></path><path d="M23.6 10.377a2.927 2.927 0 1 1-5.855 0 2.929 2.929 0 1 1 5.856 0z" fill="#f48024"></path></symbol><symbol viewBox="0 0 40 24" id="cc-jcb"><path d="M38.333 24H1.667C.75 24 0 23.28 0 22.4V1.6C0 .72.75 0 1.667 0h36.666C39.25 0 40 .72 40 1.6v20.8c0 .88-.75 1.6-1.667 1.6z" fill="#fff"></path><path d="M33.273 2.01h.013v17.062a3.454 3.454 0 0 1-1.372 2.746c-.63.47-1.366.67-2.14.67-.437 0-4.833.026-4.855 0-.01-.01 0-.07 0-.082v-6.82c0-.04.004-.064.033-.064h5.253c.867 0 1.344-.257 1.692-.61.44-.448.574-1.162.294-1.732-.24-.488-.736-.78-1.244-.913a3.146 3.146 0 0 0-.483-.083c-.01 0-.064 0-.07-.006-.03-.034.023-.04.038-.046.102-.033.215-.042.32-.073.532-.164.993-.547 1.137-1.105a1.477 1.477 0 0 0-.524-1.552c-.34-.257-.768-.376-1.187-.413-.43-.038-4.774-.022-5.21-.022-.072 0-.05-.02-.05-.09V5.63c0-.31.01-.616.073-.92.126-.592.41-1.144.815-1.59a3.398 3.398 0 0 1 2.16-1.093c.478-.048 4.89-.017 5.305-.017zm-4.06 8.616a.853.853 0 0 1-.204.77.903.903 0 0 1-.648.253c-.195.003-1.725 0-1.788 0l.003-1.645c.012-.027.02-.018.06-.018.097 0 1.713-.004 1.823.005.232.02.45.12.598.306a.814.814 0 0 1 .155.328zm-2.636 2.038h1.944c.242.002.47.063.652.228a.92.92 0 0 1 .283.815.89.89 0 0 1-.422.634c-.187.112-.39.125-.6.125h-1.857v-1.8z" fill="#53b230"></path><path d="M6.574 13.89c-.06-.03-.06-.018-.07-.06-.006-.026-.005-8.365.003-8.558.04-.95.487-1.857 1.21-2.47a3.397 3.397 0 0 1 1.83-.778c.396-.04.803-.018 1.2-.018.69 0 4.11-.013 4.12 0 .008.008.002 16.758 0 17.074a3.449 3.449 0 0 1-1.105 2.523c-.506.465-1.15.77-1.83.86-.41.056-5.02.032-5.363.032-.066 0-.054.013-.066-.024-.01-.025 0-7 0-7.17.66.178 1.35.28 2.03.348.662.067 1.33.093 1.993.062.93-.044 1.947-.192 2.712-.762.32-.238.574-.553.73-.922.148-.353.2-.736.2-1.117 0-.348.006-3.93-.016-3.942-.023-.014-2.885-.015-2.9.012-.012.022 0 3.87 0 3.95-.003.47-.16.933-.514 1.252-.468.42-1.11.47-1.707.423-.687-.055-1.357-.245-1.993-.508a10.18 10.18 0 0 1-.466-.208z" fill="#006cb9"></path><path d="M15.95 9.835c-.025.02-.05.04-.072.06V6.05c0-.295-.012-.594.01-.888.12-1.593 1.373-2.923 2.944-3.126.382-.05 5.397-.042 5.41-.026.01.01 0 .062 0 .074v16.957c0 1.304-.725 2.52-1.89 3.1-.504.25-1.045.35-1.605.35-.322 0-4.757.015-4.834 0-.05-.01-.023.01-.035-.02-.007-.022 0-6.548 0-7.44v-.422c.554.48 1.256.75 1.96.908a8.96 8.96 0 0 0 1.63.196c.537.02 1.076.01 1.61-.037a15.346 15.346 0 0 0 2.035-.334c.033-.006.17-.017.187-.044.013-.02 0-.097 0-.12v-1.324a7.226 7.226 0 0 1-1.83.652c-.778.155-1.64.198-2.385-.123-.752-.326-1.2-1.024-1.274-1.837-.076-.837.173-1.716.883-2.212.736-.513 1.7-.517 2.553-.38.634.1 1.245.305 1.825.58.078.037.154.075.23.113V9.322c0-.02.013-.1 0-.118-.02-.028-.152-.038-.188-.046-.066-.016-.133-.03-.2-.045A16.144 16.144 0 0 0 21.3 8.85a12.094 12.094 0 0 0-1.603-.066 9.786 9.786 0 0 0-1.62.154c-.662.125-1.32.337-1.883.716a3.15 3.15 0 0 0-.245.18z" fill="#e20138"></path></symbol><symbol viewBox="0 0 40 24" id="cc-maestro"><path d="M38.333 24H1.667C.75 24 0 23.28 0 22.4V1.6C0 .72.75 0 1.667 0h36.666C39.25 0 40 .72 40 1.6v20.8c0 .88-.75 1.6-1.667 1.6z" fill="#fff"></path><path d="M14.67 22.39V21c.022-.465-.303-.86-.767-.882h-.116c-.3-.023-.603.14-.788.394a.82.82 0 0 0-.743-.394.729.729 0 0 0-.65.324v-.278h-.487v2.203h.487v-1.183c-.046-.278.162-.533.44-.58h.094c.325 0 .488.21.488.58v1.23h.487v-1.23a.506.506 0 0 1 .44-.58h.093c.325 0 .487.21.487.58v1.23l.534-.024zm2.712-1.09v-1.113h-.487v.28a.865.865 0 0 0-.695-.326c-.65 0-1.16.51-1.16 1.16 0 .65.51 1.16 1.16 1.16a.87.87 0 0 0 .695-.325v.278h.487V21.3zm-1.786 0a.676.676 0 0 1 1.346.094.665.665 0 0 1-.673.625c-.372 0-.674-.28-.674-.65-.023-.047-.023-.047 0-.07zm12.085-1.16c.163 0 .325.024.465.094.14.046.278.14.37.255.117.115.186.23.256.37.117.3.117.626 0 .927a.947.947 0 0 1-.254.37 1.328 1.328 0 0 1-.37.256c-.303.116-.65.116-.952 0a.806.806 0 0 1-.37-.255 1.311 1.311 0 0 1-.257-.37 1.28 1.28 0 0 1 0-.928.963.963 0 0 1 .256-.37c.115-.117.23-.187.37-.256.163-.07.325-.116.488-.093zm0 .465c-.092 0-.185.023-.278.046-.092.024-.162.094-.232.14a.492.492 0 0 0-.14.232.85.85 0 0 0 0 .58c.024.092.094.162.14.23.07.07.14.117.232.14.186.07.37.07.557 0 .092-.023.16-.092.23-.14a.469.469 0 0 0 .14-.23.827.827 0 0 0 0-.58c-.023-.093-.093-.162-.14-.232a.486.486 0 0 0-.23-.14c-.094-.045-.187-.07-.28-.045zm-7.677.695c0-.695-.44-1.16-1.043-1.16-.65 0-1.16.534-1.137 1.183.023.65.534 1.16 1.183 1.136.325 0 .65-.093.905-.302l-.23-.348c-.187.14-.42.232-.65.232a.635.635 0 0 1-.673-.533h1.646v-.21zm-1.646-.21a.58.58 0 0 1 .58-.532c.3 0 .556.232.556.533h-1.136zm3.664-.346a1.41 1.41 0 0 0-.695-.186c-.255 0-.417.093-.417.255 0 .163.162.186.37.21l.233.022c.488.07.766.278.766.672 0 .395-.37.72-1.02.72-.348 0-.673-.094-.95-.28l.23-.37c.21.162.465.232.743.232.324 0 .51-.094.51-.28 0-.115-.117-.185-.395-.23l-.232-.024c-.487-.07-.765-.302-.765-.65 0-.44.37-.718.927-.718.325 0 .627.07.905.232l-.21.394zm2.32-.116h-.788v.997c0 .23.07.37.325.37.14 0 .3-.046.417-.115l.14.417a1.127 1.127 0 0 1-.604.162c-.58 0-.765-.302-.765-.812v-1.02h-.44v-.44h.44v-.673h.487v.672h.79v.44zm1.67-.51a.93.93 0 0 1 .35.07l-.14.463c-.093-.045-.21-.045-.302-.045-.325 0-.464.208-.464.58v1.25h-.487v-2.2h.487v.277a.654.654 0 0 1 .557-.394z"></path><path d="M23.64 3.287h-7.305V16.41h7.306" fill="#7673c0"></path><path d="M16.8 9.848a8.347 8.347 0 0 1 3.2-6.56C16.384.435 11.12 1.06 8.29 4.7c-2.855 3.62-2.23 8.88 1.413 11.71a8.331 8.331 0 0 0 10.32 0A8.276 8.276 0 0 1 16.8 9.848z" fill="#eb001b"></path><path d="M33.5 9.848a8.343 8.343 0 0 1-8.35 8.346c-1.88 0-3.69-.626-5.15-1.785 3.618-2.83 4.245-8.092 1.415-11.71A8.226 8.226 0 0 0 20 3.286C23.618.437 28.883 1.06 31.736 4.7A8.437 8.437 0 0 1 33.5 9.85z" fill="#00a1df"></path></symbol><symbol viewBox="0 0 40 24" id="cc-master-card"><path d="M0 1.927C0 .863.892 0 1.992 0h36.016C39.108 0 40 .863 40 1.927v20.146C40 23.137 39.108 24 38.008 24H1.992C.892 24 0 23.137 0 22.073V1.927z" fill="#fff"></path><path d="M11.085 22.2v-1.36c0-.522-.318-.863-.864-.863-.272 0-.568.09-.773.386-.16-.25-.386-.386-.727-.386a.734.734 0 0 0-.637.318v-.272h-.478V22.2h.478v-1.202c0-.386.204-.567.523-.567.318 0 .478.205.478.568V22.2h.477v-1.202c0-.386.23-.567.524-.567.32 0 .478.205.478.568V22.2h.523zm7.075-2.177h-.774v-.658h-.478v.658h-.432v.43h.432v.998c0 .5.205.795.75.795.206 0 .433-.068.592-.16l-.136-.407a.758.758 0 0 1-.41.114c-.227 0-.318-.137-.318-.363v-.976h.774v-.43zm4.048-.046a.64.64 0 0 0-.568.318v-.272h-.478V22.2h.478v-1.225c0-.363.16-.567.455-.567.09 0 .204.023.295.046l.137-.454c-.09-.023-.228-.023-.32-.023zm-6.118.227c-.228-.16-.546-.227-.888-.227-.546 0-.91.272-.91.703 0 .363.274.567.75.635l.23.023c.25.045.385.113.385.227 0 .16-.182.272-.5.272-.32 0-.57-.113-.728-.227l-.228.363c.25.18.59.272.932.272.637 0 1-.295 1-.703 0-.385-.295-.59-.75-.658l-.227-.022c-.205-.023-.364-.068-.364-.204 0-.16.16-.25.41-.25.272 0 .545.114.682.182l.205-.386zm12.692-.227a.639.639 0 0 0-.568.318v-.272h-.478V22.2h.478v-1.225c0-.363.16-.567.455-.567.09 0 .203.023.294.046L29.1 20c-.09-.023-.227-.023-.318-.023zm-6.096 1.134c0 .66.455 1.135 1.16 1.135.32 0 .546-.068.774-.25l-.228-.385a.922.922 0 0 1-.57.204c-.385 0-.658-.272-.658-.703 0-.407.273-.68.66-.702.204 0 .386.068.568.204l.228-.385c-.228-.182-.455-.25-.774-.25-.705 0-1.16.477-1.16 1.134zm4.413 0v-1.087h-.48v.272a.818.818 0 0 0-.68-.318c-.615 0-1.093.477-1.093 1.134 0 .66.478 1.135 1.092 1.135.317 0 .545-.113.68-.317v.272h.48v-1.09zm-1.753 0c0-.384.25-.702.66-.702.387 0 .66.295.66.703 0 .387-.273.704-.66.704-.41-.022-.66-.317-.66-.703zm-5.71-1.133c-.636 0-1.09.454-1.09 1.134 0 .682.454 1.135 1.114 1.135.32 0 .638-.09.888-.295l-.228-.34c-.18.136-.41.227-.636.227-.296 0-.592-.136-.66-.522h1.615v-.18c.022-.704-.388-1.158-1.002-1.158zm0 .41c.297 0 .502.18.547.52h-1.137c.045-.295.25-.52.59-.52zm11.852.724v-1.95h-.48v1.135a.818.818 0 0 0-.68-.318c-.615 0-1.093.477-1.093 1.134 0 .66.478 1.135 1.092 1.135.318 0 .545-.113.68-.317v.272h.48v-1.09zm-1.752 0c0-.384.25-.702.66-.702.386 0 .66.295.66.703 0 .387-.274.704-.66.704-.41-.022-.66-.317-.66-.703zm-15.97 0v-1.087h-.476v.272a.825.825 0 0 0-.683-.318c-.615 0-1.093.477-1.093 1.134 0 .66.478 1.135 1.092 1.135.318 0 .545-.113.682-.317v.272h.477v-1.09zm-1.773 0c0-.384.25-.702.66-.702.386 0 .66.295.66.703 0 .387-.274.704-.66.704-.41-.022-.66-.317-.66-.703z"></path><path d="M23.095 3.49H15.93v12.836h7.165" fill="#ff5f00"></path><path d="M16.382 9.91c0-2.61 1.23-4.922 3.117-6.42a8.17 8.17 0 0 0-5.05-1.745c-4.528 0-8.19 3.65-8.19 8.164 0 4.51 3.662 8.162 8.19 8.162 1.91 0 3.66-.657 5.05-1.746a8.138 8.138 0 0 1-3.118-6.417z" fill="#eb001b"></path><path d="M32.76 9.91c0 4.51-3.664 8.162-8.19 8.162a8.154 8.154 0 0 1-5.05-1.746 8.11 8.11 0 0 0 3.116-6.417 8.18 8.18 0 0 0-3.116-6.42 8.166 8.166 0 0 1 5.05-1.745c4.526 0 8.19 3.674 8.19 8.164z" fill="#f79e1b"></path></symbol><symbol viewBox="0 0 40 24" id="cc-visa"><path d="M0 1.927C0 .863.892 0 1.992 0h36.016C39.108 0 40 .863 40 1.927v20.146C40 23.137 39.108 24 38.008 24H1.992C.892 24 0 23.137 0 22.073V1.927z" fill="#fff"></path><path d="M0 22.033C0 23.12.892 24 1.992 24h36.016c1.1 0 1.992-.88 1.992-1.967V20.08H0v1.953z" fill="#f8b600"></path><path d="M0 3.92h40V1.967C40 .88 39.108 0 38.008 0H1.992C.892 0 0 .88 0 1.967V3.92zm19.596 3.965l-2.11 9.478H14.93l2.11-9.478h2.554zm10.743 6.12l1.343-3.56.773 3.56H30.34zm2.85 3.358h2.36l-2.063-9.478H31.31c-.492 0-.905.274-1.088.695l-3.832 8.783h2.682l.532-1.415h3.276l.31 1.415zm-6.667-3.094c.01-2.502-3.6-2.64-3.577-3.76.008-.338.345-.7 1.083-.793.365-.045 1.373-.08 2.517.425l.448-2.01a7.122 7.122 0 0 0-2.39-.42c-2.523 0-4.3 1.288-4.313 3.133-.016 1.364 1.268 2.125 2.234 2.58.996.464 1.33.762 1.325 1.177-.006.636-.793.918-1.526.928-1.285.02-2.03-.333-2.623-.6l-.462 2.08c.598.262 1.7.49 2.84.502 2.682 0 4.437-1.273 4.445-3.243zM15.948 7.884l-4.138 9.478h-2.7L7.076 9.8c-.123-.466-.23-.637-.606-.834-.615-.32-1.63-.62-2.52-.806l.06-.275h4.345c.554 0 1.052.354 1.178.966l1.076 5.486 2.655-6.45h2.683z" fill="#1a1f71"></path></symbol><symbol viewBox="0 0 14 11" id="check"><path fill="#61DB14" d="M5 10.42l-5-5 1.41-1.41L5 7.59 12.59 0 14 1.42z" fill-rule="evenodd"></path></symbol><symbol viewBox="0 0 12 8" id="chevron-down"><path d="M10.59.59L6 5.17 1.41.59 0 2l6 6 6-6z" fill="currentColor" fill-rule="evenodd"></path></symbol><symbol viewBox="0 0 14 14" id="close"><path d="M14 1.41L12.59 0 7 5.59 1.41 0 0 1.41 5.59 7 0 12.59 1.41 14 7 8.41 12.59 14 14 12.59 8.41 7z" fill="currentColor" fill-rule="evenodd"></path></symbol><symbol viewBox="0 0 48 48" id="facebook"><path d="M25.638 48H2.65A2.65 2.65 0 0 1 0 45.35V2.65A2.649 2.649 0 0 1 2.65 0H45.35A2.649 2.649 0 0 1 48 2.65v42.7A2.65 2.65 0 0 1 45.351 48H33.119V29.412h6.24l.934-7.244h-7.174v-4.625c0-2.098.583-3.527 3.59-3.527l3.836-.002V7.535c-.663-.088-2.94-.285-5.59-.285-5.53 0-9.317 3.376-9.317 9.575v5.343h-6.255v7.244h6.255V48z" fill="currentColor" fill-rule="evenodd"></path></symbol><symbol viewBox="0 0 24 24" id="heart-filled"><path fill="currentColor" d="M11.466 22.776a.746.746 0 0 0 1.068 0l9.594-9.721C26.129 9.002 23.286 2 17.596 2 14.179 2 12.611 4.511 12 4.98 11.386 4.509 9.828 2 6.404 2 .732 2-2.146 8.984 1.873 13.055z"></path></symbol><symbol viewBox="0 0 512 512" id="heart"><path d="M469.585 80.732c-55.679-52.984-146.306-52.984-202.003-.012l-11.581 11-11.569-10.995c-55.703-52.979-146.318-52.973-202.021 0C15.061 106.739 0 141.244 0 177.874c0 36.642 15.061 71.141 42.415 97.166l201.219 191.033A17.886 17.886 0 0 0 256 471.007c4.449 0 8.899-1.647 12.366-4.94L469.585 275.04C496.933 249.021 512 214.517 512 177.88c0-36.636-15.067-71.135-42.415-97.148zm-24.756 168.259L256 428.269 67.177 248.997C47.026 229.835 35.93 204.576 35.93 177.88s11.096-51.955 31.247-71.117c21.019-20.001 48.625-29.995 76.237-29.995 27.618 0 55.236 10.006 76.255 30.007l23.953 22.75c6.934 6.593 17.815 6.593 24.75 0l23.959-22.762c42.044-39.996 110.448-39.996 152.492 0 20.145 19.163 31.247 44.421 31.247 71.117s-11.102 51.949-31.241 71.111z"></path></symbol><symbol viewBox="0 0 48 48" id="instagram"><path d="M25.86.001c4.847.006 5.742.039 8.035.143 2.555.117 4.3.523 5.826 1.116 1.578.613 2.917 1.434 4.25 2.768 1.335 1.334 2.156 2.673 2.77 4.251.592 1.527.998 3.271 1.115 5.826.116 2.56.144 3.377.144 9.895s-.028 7.335-.144 9.895c-.117 2.555-.523 4.3-1.116 5.826-.613 1.578-1.434 2.917-2.768 4.25-1.334 1.335-2.673 2.156-4.251 2.77-1.527.592-3.271.998-5.826 1.115-2.56.116-3.377.144-9.895.144s-7.335-.028-9.895-.144c-2.555-.117-4.3-.523-5.826-1.116-1.578-.613-2.917-1.434-4.25-2.768-1.335-1.334-2.156-2.673-2.769-4.251-.593-1.527-1-3.271-1.116-5.826C.04 31.602.007 30.707.001 25.86v-3.72c.006-4.847.039-5.742.143-8.035.117-2.555.523-4.3 1.116-5.826.613-1.578 1.434-2.917 2.768-4.25C5.362 2.693 6.701 1.872 8.28 1.26 9.806.667 11.55.26 14.105.144c2.23-.101 3.137-.135 7.64-.142L22.14 0h3.72zm-.342 4.324h-3.036c-5.032.004-5.865.034-8.18.14-2.34.106-3.61.497-4.457.826-1.12.435-1.92.955-2.759 1.795-.84.84-1.36 1.64-1.795 2.76-.33.845-.72 2.116-.827 4.456-.105 2.315-.135 3.148-.14 8.18v3.036c.005 5.032.035 5.865.14 8.18.107 2.34.498 3.61.827 4.457.435 1.12.955 1.92 1.795 2.76.84.839 1.64 1.359 2.76 1.794.845.33 2.116.72 4.456.827 2.315.105 3.147.135 8.18.14h3.036c5.033-.005 5.865-.035 8.18-.14 2.34-.107 3.61-.498 4.457-.827 1.12-.435 1.92-.955 2.759-1.795.84-.84 1.36-1.64 1.795-2.76.33-.845.72-2.116.827-4.456.105-2.315.135-3.148.14-8.18v-3.036c-.005-5.032-.035-5.865-.14-8.18-.107-2.34-.498-3.61-.827-4.457-.435-1.12-.955-1.92-1.795-2.76-.84-.839-1.64-1.359-2.76-1.794-.845-.33-2.116-.72-4.456-.827-2.315-.105-3.148-.135-8.18-.14zM24 11.675c6.807 0 12.324 5.518 12.324 12.325 0 6.807-5.517 12.324-12.324 12.324-6.807 0-12.324-5.517-12.324-12.324 0-6.807 5.517-12.324 12.324-12.324zM24 16a8 8 0 1 0 0 16 8 8 0 0 0 0-16zm12.811-7.691a2.88 2.88 0 1 1 0 5.76 2.88 2.88 0 0 1 0-5.76z" fill="currentColor" fill-rule="evenodd"></path></symbol><symbol viewBox="0 0 24 24" id="menu"><path d="M0 0h24v24H0z" fill="none"></path><path d="M3 18h18v-2H3v2zm0-5h18v-2H3v2zm0-7v2h18V6H3z" fill="currentColor"></path></symbol><symbol viewBox="0 0 17 17" id="person-solid"><path d="M8.5.5c-2.21 0-4 1.79-4 4s1.79 4 4 4 4-1.79 4-4-1.79-4-4-4zm0 9c-2.67 0-8 1.34-8 4v3h16v-3c0-2.66-5.33-4-8-4z" fill="currentColor" fill-rule="nonzero"></path></symbol><symbol viewBox="0 0 16 16" id="person"><path d="M8 1.9a2.1 2.1 0 1 1 0 4.2 2.1 2.1 0 0 1 0-4.2zm0 9c2.97 0 6.1 1.46 6.1 2.1v1.1H1.9V13c0-.64 3.13-2.1 6.1-2.1zM8 0C5.79 0 4 1.79 4 4s1.79 4 4 4 4-1.79 4-4-1.79-4-4-4zm0 9c-2.67 0-8 1.34-8 4v3h16v-3c0-2.66-5.33-4-8-4z" fill="currentColor" fill-rule="evenodd"></path></symbol><symbol viewBox="0 0 48 48" id="pinterest"><path d="M24.001 0C10.748 0 0 10.745 0 24.001c0 9.825 5.91 18.27 14.369 21.981-.068-1.674-.012-3.689.415-5.512.462-1.948 3.087-13.076 3.087-13.076s-.765-1.533-.765-3.799c0-3.556 2.064-6.212 4.629-6.212 2.182 0 3.237 1.64 3.237 3.604 0 2.193-1.4 5.476-2.12 8.515-.6 2.549 1.276 4.623 3.788 4.623 4.547 0 7.61-5.84 7.61-12.76 0-5.258-3.543-9.195-9.986-9.195-7.279 0-11.815 5.427-11.815 11.49 0 2.094.616 3.567 1.581 4.708.446.527.505.736.344 1.34-.113.438-.378 1.505-.488 1.925-.16.607-.652.827-1.2.601-3.355-1.369-4.916-5.04-4.916-9.17 0-6.816 5.75-14.995 17.152-14.995 9.164 0 15.195 6.636 15.195 13.75 0 9.416-5.233 16.45-12.952 16.45-2.588 0-5.026-1.4-5.862-2.99 0 0-1.394 5.53-1.688 6.596-.508 1.85-1.504 3.7-2.415 5.14 2.159.638 4.44.985 6.801.985C37.255 48 48 37.255 48 24.001 48 10.745 37.255 0 24.001 0" fill="currentColor" fill-rule="evenodd"></path></symbol><symbol viewBox="0 0 152 282" id="thin-arrow-left"><path fill="none" stroke="#000" stroke-miterlimit="10" stroke-width="9" d="M146.5 277.97L10.03 141.5 146.5 5.03"></path></symbol><symbol viewBox="0 0 152 282" id="thin-arrow-right"><path fill="none" stroke="#000" stroke-miterlimit="10" stroke-width="9" d="M8.5 5.03L144.97 141.5 8.5 277.97"></path></symbol><symbol viewBox="0 0 674.2 158.7" id="thirstie-footer"><path fill="currentColor" d="M168.15 76.05H139v-35.5h-6.8v77.8h6.8v-35.6h29.2v35.5h6.9v-77.7h-6.9zm-122.5-28.9h18.2v71.1h6.9v-71.1H89v-6.7H45.75v6.7zm176.1 71.1h6.9v-77.7h-6.9zm84.6-34.6a18.74 18.74 0 0 0 10-10.2 18.61 18.61 0 0 0 1.5-7.5v-6.3a19.31 19.31 0 0 0-1.5-7.5 18.74 18.74 0 0 0-10-10.2 18 18 0 0 0-7.3-1.5h-24.2v77.8h6.9v-33.2h9.4l20.7 33.2h7.9l-20.7-33.2a17.92 17.92 0 0 0 7.3-1.4zm-24.6-5.2v-31.3h17a11.17 11.17 0 0 1 4.8 1 10.52 10.52 0 0 1 3.8 2.7 12 12 0 0 1 2.6 4 13 13 0 0 1 1 4.9v6.3a11.62 11.62 0 0 1-1 4.9 13.13 13.13 0 0 1-2.6 4 14.59 14.59 0 0 1-3.8 2.7 11.17 11.17 0 0 1-4.8 1h-17zm163.8-31.3h18.2v71.1h6.9v-71.1h18.2v-6.7h-43.2v6.7zm86.5 71.6H539v-78.2h-6.9zm96.5-71.6v-6.7h-42.9v77.8h42.9v-6.7h-36v-28.8h29.2v-6.7h-29.2v-28.9zm-228.8 36.5a24.26 24.26 0 0 0-5.8-4.1 66.2 66.2 0 0 0-6.6-3q-3.45-1.35-6.6-2.7a27 27 0 0 1-5.8-3.2 14.29 14.29 0 0 1-4.1-4.4 12.24 12.24 0 0 1-1.5-6.3v-1.5a11.94 11.94 0 0 1 1-4.9 11.6 11.6 0 0 1 2.6-3.9 13.58 13.58 0 0 1 3.9-2.7 12.87 12.87 0 0 1 4.8-1H386a11.17 11.17 0 0 1 4.8 1 11.86 11.86 0 0 1 3.9 2.7 11.6 11.6 0 0 1 2.6 3.9 13 13 0 0 1 1 4.9v3.1l6.9-1.1v-2a18.47 18.47 0 0 0-1.5-7.4 20.8 20.8 0 0 0-4-6.1 20.17 20.17 0 0 0-5.9-4.1 18 18 0 0 0-7.3-1.5h-4.9a18 18 0 0 0-7.3 1.5 18.74 18.74 0 0 0-10 10.2 18.47 18.47 0 0 0-1.5 7.4V60a21 21 0 0 0 1.5 8.4 17.41 17.41 0 0 0 4.1 5.8 21.1 21.1 0 0 0 5.8 3.9c2.1 1 4.3 2 6.6 2.9s4.5 1.7 6.6 2.6a27 27 0 0 1 5.8 3.2 14.62 14.62 0 0 1 4.1 4.5 13.55 13.55 0 0 1 1.5 6.7v2.3a11.62 11.62 0 0 1-1 4.9 13.77 13.77 0 0 1-2.8 4 15.64 15.64 0 0 1-4 2.7 12.87 12.87 0 0 1-4.8 1H381a11.94 11.94 0 0 1-4.9-1 16.19 16.19 0 0 1-4.1-2.7 12.56 12.56 0 0 1-2.8-4 11.31 11.31 0 0 1-1-4.9v-4.2l-6.9 1.1v3.1a17 17 0 0 0 1.6 7.4 19.58 19.58 0 0 0 4.2 6.1 21.1 21.1 0 0 0 6.1 4.1 18.47 18.47 0 0 0 7.4 1.5h5.5a18.83 18.83 0 0 0 7.4-1.5 19.83 19.83 0 0 0 6.1-4.1 19.32 19.32 0 0 0 5.8-13.5V98a21.89 21.89 0 0 0-1.5-8.5 20.84 20.84 0 0 0-4.15-5.85z"></path><path fill="currentColor" d="M663.2 158.7H11a11 11 0 0 1-11-11V11A11 11 0 0 1 11 0h652.2a11 11 0 0 1 11 11v136.7a11 11 0 0 1-11 11zM11 8a3 3 0 0 0-3 3v136.7a3 3 0 0 0 3 3h652.2a3 3 0 0 0 3-3V11a3 3 0 0 0-3-3z"></path></symbol><symbol viewBox="0 0 159 159" id="thirstielogo"><path d="M146.7 0H11.9A11.86 11.86 0 0 0 0 11.85v134.8a11.86 11.86 0 0 0 11.9 11.9h134.8a11.86 11.86 0 0 0 11.9-11.9V11.85C158.52 5.32 153.23.054 146.7 0zm3.9 146.7a4 4 0 0 1-4 4H11.9a4 4 0 0 1-4-4V11.85a4 4 0 0 1 4-4h134.8a4 4 0 0 1 4 4v134.8l-.1.05zM57.4 47.25h18.4v70.5h6.9v-70.5h18.4v-6.6H57.4v6.6z" fill="currentColor" fill-rule="nonzero"></path></symbol><symbol viewBox="0 0 48 40" id="twitter"><path d="M48 4.735a19.235 19.235 0 0 1-5.655 1.59A10.076 10.076 0 0 0 46.675.74a19.395 19.395 0 0 1-6.257 2.447C38.627 1.225 36.066 0 33.231 0c-5.435 0-9.844 4.521-9.844 10.098 0 .791.085 1.56.254 2.3C15.456 11.974 8.2 7.96 3.34 1.842A10.281 10.281 0 0 0 2.01 6.925c0 3.502 1.738 6.593 4.38 8.405a9.668 9.668 0 0 1-4.462-1.26v.124c0 4.894 3.395 8.977 7.903 9.901a9.39 9.39 0 0 1-2.595.356c-.634 0-1.254-.061-1.854-.18 1.254 4.01 4.888 6.932 9.199 7.01-3.37 2.71-7.618 4.325-12.23 4.325-.795 0-1.58-.047-2.35-.139C4.359 38.327 9.537 40 15.096 40c18.115 0 28.019-15.385 28.019-28.73 0-.439-.009-.878-.026-1.308A20.211 20.211 0 0 0 48 4.735" fill="currentColor" fill-rule="evenodd"></path></symbol><symbol viewBox="0 0 48 34" id="youtube"><path d="M19.044 23.27l-.002-13.582 12.97 6.814-12.968 6.768zM47.52 7.334s-.47-3.33-1.908-4.798C43.786.61 41.74.601 40.803.49 34.086 0 24.011 0 24.011 0h-.022S13.914 0 7.197.49C6.258.6 4.214.61 2.387 2.535.948 4.003.48 7.334.48 7.334S0 11.247 0 15.158v3.668c0 3.912.48 7.823.48 7.823s.468 3.331 1.907 4.798c1.827 1.926 4.225 1.866 5.293 2.067C11.52 33.885 24 34 24 34s10.086-.015 16.803-.505c.938-.113 2.983-.122 4.809-2.048 1.438-1.467 1.908-4.798 1.908-4.798s.48-3.91.48-7.823v-3.668c0-3.911-.48-7.824-.48-7.824z" fill="currentColor" fill-rule="evenodd"></path></symbol></svg>